<svg xmlns="http://www.w3.org/2000/svg" height="40" viewBox="0 96 960 960" width="40"><path d="M273.333 656.667H523q13.667 0 23-9.617t9.333-23.833q0-14.217-9.583-23.717-9.583-9.5-23.75-9.5H272.333q-13.666 0-23 9.617Q240 609.234 240 623.451q0 14.216 9.583 23.716 9.584 9.5 23.75 9.5Zm0-126.667h414.334q13.666 0 23-9.617Q720 510.766 720 496.55q0-14.217-9.583-23.717-9.584-9.499-23.75-9.499H272.333q-13.666 0-23 9.616Q240 482.567 240 496.784q0 14.216 9.583 23.716 9.584 9.5 23.75 9.5Zm0-126.667h414.334q13.666 0 23-9.617Q720 384.099 720 369.883q0-14.216-9.583-23.716-9.584-9.5-23.75-9.5H272.333q-13.666 0-23 9.617Q240 355.901 240 370.117q0 14.216 9.583 23.716 9.584 9.5 23.75 9.5ZM80 895.667V242.666q0-26.333 19.833-46.499Q119.666 176 146.666 176h666.668q26.333 0 46.499 20.167Q880 216.333 880 242.666v506.668q0 26.333-20.167 46.499Q839.667 816 813.334 816H240L136.666 919.334Q121 935 100.5 926.396 80 917.792 80 895.667Zm66.666-80.666 65.667-65.667h601.001V242.666H146.666v572.335Zm0-572.335v572.335-572.335Z"/></svg>