<svg xmlns="http://www.w3.org/2000/svg" height="24" viewBox="0 96 960 960" width="24"><path d="M284 969.587q-31.762 0-54.381-22.619Q207 924.35 207 892.587q0-31.762 22.619-54.381T284 815.587q31.763 0 54.381 22.619Q361 860.825 361 892.587q0 31.763-22.619 54.381-22.618 22.619-54.381 22.619Zm391 0q-31.763 0-54.381-22.619Q598 924.35 598 892.587q0-31.762 22.619-54.381 22.618-22.619 54.381-22.619t54.381 22.619Q752 860.825 752 892.587q0 31.763-22.619 54.381-22.618 22.619-54.381 22.619Zm-421.022-629 90.5 189h274.044l103.782-189H253.978Zm-39.703-82.174h567.29q27.213 0 40.911 23.426 13.698 23.425.546 47.574l-132.5 239.674q-10.478 20.217-29.553 31.565Q641.894 612 619.913 612H330.065l-42.847 78.413h468.369v82.174H284.189q-46.488 0-69.86-39.663-23.373-39.663-1.677-78.837l53.283-94.868-139.97-296.632H46.413v-82.174h130.739l37.123 78Zm130.203 271.174h274.044-274.044Z"/></svg>
